# xmcd
#
# Track frame offsets: 
#        150
#        23844
#        36768
#        49434
#        64916
#        79017
#        95335
#        113674
#        130332
#        145324
#        161704
#        177988
#        193237
#        206650
#        223734
#        241181
#        259638
#        272786
#        289684
#        306549
#
# Disc length: 4330 seconds
#
# Revision: 0
# Processed by: cddbd v1.5.2PL0 Copyright (c) Steve Scherf et al.
# Submitted via: ExactAudioCopy v1.1
#
DISCID=3410e814
DTITLE=Various Artist - Belpop Hits - CD 1
DYEAR=2018
DGENRE=Pop
TTITLE0=dEUS - Suds and Soda
TTITLE1=Daan - Icon
TTITLE2=Hooverphonic - The Night Before
TTITLE3=Oscar And The Wolf - Strange Entity
TTITLE4=Luc Van Acker and Anna Domino - Zanna
TTITLE5=Tourist LeMC Feat. Spiritually Wally - Horizon
TTITLE6=Lady Linn And Her Magnificent Seven - I Don't Wanna Dance
TTITLE7=The Pebbles - Seven Horses In The Sky
TTITLE8=Das Pop - Never Get Enough
TTITLE9=Vaya Con Dios - Heading For A Fall
TTITLE10=Jo Lemaire and Flouze - Je Suis Venue Te Dire Que Je M'En Vais
TTITLE11=Noordkaap - Een Heel Klein Beetje Oorlog
TTITLE12=Buurman - God, Ik En Marjon
TTITLE13=Gabriel Rios - Dauphine
TTITLE14=Ferre Grignard - Ring Ring I've Got To Sing
TTITLE15=Balthazar - Then What
TTITLE16=Eva De Roovere - Fantastig Toch
TTITLE17=Fixkes - Kvraagetaan
TTITLE18=The Radios - She Goes Nana
TTITLE19=Stash - Sadness
EXTD=
EXTT0=
EXTT1=
EXTT2=
EXTT3=
EXTT4=
EXTT5=
EXTT6=
EXTT7=
EXTT8=
EXTT9=
EXTT10=
EXTT11=
EXTT12=
EXTT13=
EXTT14=
EXTT15=
EXTT16=
EXTT17=
EXTT18=
EXTT19=
PLAYORDER=
